# xmcd CD database file
#
# Track frame offsets:
#	150
#	13715
#	27015
#	39242
#	51920
#	67115
#	80882
#	99087
#	112270
#	128217
#	140180
#	153652
#	167075
#	181315
#	195805
#	213752
#
# Disc length: 2987 seconds
#
# Revision: 0
# Processed by: cddbd v1.5.1PL2 Copyright (c) Steve Scherf et al.
# Submitted via: CDex 1.51
#
DISCID=db0ba910
DTITLE=黛ジュン - 想い出の音楽館
DYEAR=1900
DGENRE=J-pop
TTITLE0=天使の誘惑
TTITLE1=雲にのりたい
TTITLE2=土曜の夜何かが起きる
TTITLE3=つみな人
TTITLE4=自由の女神
TTITLE5=乙女の祈り
TTITLE6=つめたい耳
TTITLE7=時は流れる
TTITLE8=夕月
TTITLE9=愛の奇蹟
TTITLE10=不思議な太陽
TTITLE11=恋のサルビア
TTITLE12=霧のかなたに
TTITLE13=淋しくて淋しくて
TTITLE14=ブラック・ルーム
TTITLE15=恋のハレルヤ
EXTD=
EXTT0=
EXTT1=
EXTT2=
EXTT3=
EXTT4=
EXTT5=
EXTT6=
EXTT7=
EXTT8=
EXTT9=
EXTT10=
EXTT11=
EXTT12=
EXTT13=
EXTT14=
EXTT15=
PLAYORDER=
